<svg version="1.1" id="Layer_1" xmlns="http://www.w3.org/2000/svg" xmlns:xlink="http://www.w3.org/1999/xlink" x="0px" y="0px"
	 width="100%" viewBox="0 0 301 318" enable-background="new 0 0 301 318" xml:space="preserve">
<path fill="transparent" opacity="1.000000" stroke="none"
	d="
M302.000000,113.000000 
	C302.000000,182.000000 302.000000,250.500000 302.000000,319.000000 
	C201.666672,319.000000 101.333336,319.000000 1.000000,319.000000 
	C1.000000,213.000000 1.000000,107.000000 1.000000,1.000000 
	C101.333336,1.000000 201.666672,1.000000 302.000000,1.000000 
	C302.000000,38.166668 302.000000,75.333336 302.000000,113.000000 
M61.308514,291.212830 
	C110.024887,321.092834 161.252411,323.292969 213.707901,303.516052 
	C241.838470,292.910187 263.227478,273.193878 278.986237,247.613800 
	C280.535248,245.099365 281.741791,240.979568 280.771301,238.530609 
	C273.763702,220.847122 261.379333,208.141647 243.770630,200.598694 
	C241.129044,199.467102 239.779694,199.838684 237.940506,202.100464 
	C235.246964,205.412857 232.219208,208.660400 228.744522,211.094147 
	C215.144730,220.619644 200.592896,218.869919 186.305984,213.219971 
	C174.869965,208.697449 163.943298,202.900772 152.592422,198.142273 
	C148.012283,196.222183 146.353058,193.350388 146.136536,188.695328 
	C145.446304,173.855118 153.702240,164.767654 165.648392,158.160416 
	C169.996521,155.755539 174.767975,154.126083 179.296249,152.034500 
	C186.154556,148.866684 190.005829,143.600952 189.607803,135.885895 
	C189.243851,128.830811 184.131134,123.274513 176.264801,120.818047 
	C162.283752,116.452095 146.652786,121.823784 138.891312,134.862625 
	C128.857971,151.718109 127.471962,169.662231 134.747620,188.079117 
	C135.141495,189.076111 135.375854,190.136154 135.722717,191.294601 
	C104.923950,189.661514 76.039200,174.891953 65.677406,155.623932 
	C65.929047,155.238434 66.136803,154.767746 66.477005,154.430771 
	C67.185844,153.728653 67.911346,153.021759 68.722771,152.448029 
	C82.531410,142.684418 90.416283,128.894928 95.892586,113.284378 
	C105.364189,86.285004 125.159119,72.804810 153.727188,75.076706 
	C181.140915,77.256798 196.432846,101.306381 195.749237,118.330284 
	C195.395660,127.135590 195.895416,135.993362 196.400650,144.805008 
	C196.576294,147.868500 197.608810,151.012573 198.907410,153.815216 
	C199.395813,154.869263 201.904861,155.797302 203.222610,155.516281 
	C208.874924,154.310898 214.426620,152.633774 219.191925,151.350281 
	C219.191925,142.278519 218.779251,133.149094 219.310181,124.074867 
	C219.821701,115.332695 222.275330,106.982094 228.018661,100.013298 
	C234.013412,92.739426 243.328537,90.833504 251.209244,96.040512 
	C255.259628,98.716728 259.013214,102.419807 261.722809,106.450760 
	C275.782898,127.367355 272.829865,163.479965 255.850464,182.811539 
	C254.522369,184.323639 253.179031,185.822357 251.842773,187.327286 
	C252.198532,187.878601 252.554306,188.429901 252.910080,188.981216 
	C268.133606,182.335022 283.357117,175.688828 299.399841,168.684982 
	C290.678772,156.943817 287.824524,144.223801 284.531372,131.685593 
	C280.548401,116.520981 276.948730,101.210854 265.507599,89.428207 
	C266.224731,88.110123 266.713684,87.055428 267.337616,86.087761 
	C280.471680,65.718246 286.275238,43.333138 285.922729,19.202042 
	C285.783051,9.639493 285.926086,9.513754 276.527618,7.991055 
	C253.861465,4.318781 232.112442,7.271049 211.289581,17.110777 
	C209.054016,18.167177 206.123825,18.902946 203.792297,18.428616 
	C181.199341,13.832197 158.506042,13.642428 135.663559,15.920781 
	C132.425919,16.243710 128.736328,15.666317 125.758247,14.360231 
	C108.780029,6.914164 91.352264,1.981744 72.579094,2.800914 
	C67.631226,3.016815 64.773872,5.094147 63.885616,9.935077 
	C60.561264,28.052542 58.863598,46.347416 61.043995,64.643967 
	C61.780972,70.828217 59.961151,74.022552 55.581749,77.514534 
	C12.294068,112.030663 -1.672889,157.720886 7.259785,210.773529 
	C13.002877,244.882721 31.894053,271.481476 61.308514,291.212830 
M227.552689,153.791901 
	C232.713608,161.620834 237.874527,169.449768 243.350266,177.756287 
	C245.545303,175.762344 247.402954,174.373993 248.897568,172.667633 
	C257.304199,163.070251 258.589050,144.950729 251.580200,134.311264 
	C250.321991,132.401321 248.726379,130.569305 246.912750,129.194382 
	C238.675140,122.949432 228.940536,125.926315 226.850723,135.992065 
	C225.723907,141.419464 227.053635,147.356888 227.552689,153.791901 
M227.167694,176.868439 
	C223.315491,177.545486 219.237106,177.647766 215.670807,179.051285 
	C211.603943,180.651794 210.776047,184.406677 212.690399,188.151352 
	C215.097549,192.860046 221.313904,195.943710 226.504318,195.003876 
	C231.861710,194.033813 237.125519,188.952301 237.000320,184.482208 
	C236.840729,178.784927 232.267380,177.994827 227.167694,176.868439 
z"/>
<path fill="#ffff" opacity="1.000000" stroke="none"
	d="
M60.994736,291.033752 
	C31.894053,271.481476 13.002877,244.882721 7.259785,210.773529 
	C-1.672889,157.720886 12.294068,112.030663 55.581749,77.514534 
	C59.961151,74.022552 61.780972,70.828217 61.043995,64.643967 
	C58.863598,46.347416 60.561264,28.052542 63.885616,9.935077 
	C64.773872,5.094147 67.631226,3.016815 72.579094,2.800914 
	C91.352264,1.981744 108.780029,6.914164 125.758247,14.360231 
	C128.736328,15.666317 132.425919,16.243710 135.663559,15.920781 
	C158.506042,13.642428 181.199341,13.832197 203.792297,18.428616 
	C206.123825,18.902946 209.054016,18.167177 211.289581,17.110777 
	C232.112442,7.271049 253.861465,4.318781 276.527618,7.991055 
	C285.926086,9.513754 285.783051,9.639493 285.922729,19.202042 
	C286.275238,43.333138 280.471680,65.718246 267.337616,86.087761 
	C266.713684,87.055428 266.224731,88.110123 265.507599,89.428207 
	C276.948730,101.210854 280.548401,116.520981 284.531372,131.685593 
	C287.824524,144.223801 290.678772,156.943817 299.399841,168.684982 
	C283.357117,175.688828 268.133606,182.335022 252.910080,188.981216 
	C252.554306,188.429901 252.198532,187.878601 251.842773,187.327286 
	C253.179031,185.822357 254.522369,184.323639 255.850464,182.811539 
	C272.829865,163.479965 275.782898,127.367355 261.722809,106.450760 
	C259.013214,102.419807 255.259628,98.716728 251.209244,96.040512 
	C243.328537,90.833504 234.013412,92.739426 228.018661,100.013298 
	C222.275330,106.982094 219.821701,115.332695 219.310181,124.074867 
	C218.779251,133.149094 219.191925,142.278519 219.191925,151.350281 
	C214.426620,152.633774 208.874924,154.310898 203.222610,155.516281 
	C201.904861,155.797302 199.395813,154.869263 198.907410,153.815216 
	C197.608810,151.012573 196.576294,147.868500 196.400650,144.805008 
	C195.895416,135.993362 195.395660,127.135590 195.749237,118.330284 
	C196.432846,101.306381 181.140915,77.256798 153.727188,75.076706 
	C125.159119,72.804810 105.364189,86.285004 95.892586,113.284378 
	C90.416283,128.894928 82.531410,142.684418 68.722771,152.448029 
	C67.911346,153.021759 67.185844,153.728653 66.477005,154.430771 
	C66.136803,154.767746 65.929047,155.238434 65.677406,155.623932 
	C76.039200,174.891953 104.923950,189.661514 135.722717,191.294601 
	C135.375854,190.136154 135.141495,189.076111 134.747620,188.079117 
	C127.471962,169.662231 128.857971,151.718109 138.891312,134.862625 
	C146.652786,121.823784 162.283752,116.452095 176.264801,120.818047 
	C184.131134,123.274513 189.243851,128.830811 189.607803,135.885895 
	C190.005829,143.600952 186.154556,148.866684 179.296249,152.034500 
	C174.767975,154.126083 169.996521,155.755539 165.648392,158.160416 
	C153.702240,164.767654 145.446304,173.855118 146.136536,188.695328 
	C146.353058,193.350388 148.012283,196.222183 152.592422,198.142273 
	C163.943298,202.900772 174.869965,208.697449 186.305984,213.219971 
	C200.592896,218.869919 215.144730,220.619644 228.744522,211.094147 
	C232.219208,208.660400 235.246964,205.412857 237.940506,202.100464 
	C239.779694,199.838684 241.129044,199.467102 243.770630,200.598694 
	C261.379333,208.141647 273.763702,220.847122 280.771301,238.530609 
	C281.741791,240.979568 280.535248,245.099365 278.986237,247.613800 
	C263.227478,273.193878 241.838470,292.910187 213.707901,303.516052 
	C161.252411,323.292969 110.024887,321.092834 60.994736,291.033752 
M113.430565,48.611137 
	C117.365639,48.157784 121.300720,47.704426 125.469337,47.224167 
	C118.812340,28.858105 93.578682,11.298928 75.483505,11.448294 
	C72.078392,11.476401 71.042923,13.443110 70.947029,16.139715 
	C70.645737,24.612713 70.055450,33.116356 70.474800,41.563564 
	C70.983589,51.812420 73.589279,61.651054 79.447563,70.335373 
	C80.380302,71.718056 81.609894,72.900475 82.702248,74.175484 
	C83.146065,73.984947 83.589882,73.794403 84.033707,73.603867 
	C80.308174,58.107372 77.187813,42.570137 79.570114,26.362215 
	C80.758934,26.449362 81.395630,26.456636 82.020134,26.547604 
	C95.891342,28.568142 105.768341,36.332298 113.430565,48.611137 
M271.209747,54.689629 
	C271.794006,48.556549 272.261536,42.409206 273.008667,36.296036 
	C273.421326,32.919376 272.022369,31.443802 268.879547,30.763292 
	C259.427490,28.716658 250.058014,28.598959 240.819595,31.724438 
	C238.418854,32.536636 236.163605,33.778801 233.743805,34.867439 
	C239.807999,44.208580 241.439835,44.921673 250.899445,43.293736 
	C253.187698,42.899940 255.537369,42.771042 257.863831,42.708714 
	C264.378937,42.534161 266.206879,44.018944 265.772430,50.396385 
	C265.357971,56.480286 264.067047,62.501801 263.254028,68.563156 
	C263.057190,70.030701 263.224762,71.547127 263.224762,73.041069 
	C263.725403,73.130669 264.226044,73.220268 264.726685,73.309875 
	C268.200317,67.939659 269.793457,61.803181 271.209747,54.689629 
z"/>
<path fill="#ffff" opacity="1.000000" stroke="none"
	d="
M227.413879,153.428040 
	C227.053635,147.356888 225.723907,141.419464 226.850723,135.992065 
	C228.940536,125.926315 238.675140,122.949432 246.912750,129.194382 
	C248.726379,130.569305 250.321991,132.401321 251.580200,134.311264 
	C258.589050,144.950729 257.304199,163.070251 248.897568,172.667633 
	C247.402954,174.373993 245.545303,175.762344 243.350266,177.756287 
	C237.874527,169.449768 232.713608,161.620834 227.413879,153.428040 
z"/>
<path fill="#ffff" opacity="1.000000" stroke="none"
	d="
M227.601440,176.914230 
	C232.267380,177.994827 236.840729,178.784927 237.000320,184.482208 
	C237.125519,188.952301 231.861710,194.033813 226.504318,195.003876 
	C221.313904,195.943710 215.097549,192.860046 212.690399,188.151352 
	C210.776047,184.406677 211.603943,180.651794 215.670807,179.051285 
	C219.237106,177.647766 223.315491,177.545486 227.601440,176.914230 
z"/>
<path fill="transparent" opacity="1.000000" stroke="none"
	d="
M113.164055,48.326233 
	C105.768341,36.332298 95.891342,28.568142 82.020134,26.547604 
	C81.395630,26.456636 80.758934,26.449362 79.570114,26.362215 
	C77.187813,42.570137 80.308174,58.107372 84.033707,73.603867 
	C83.589882,73.794403 83.146065,73.984947 82.702248,74.175484 
	C81.609894,72.900475 80.380302,71.718056 79.447563,70.335373 
	C73.589279,61.651054 70.983589,51.812420 70.474800,41.563564 
	C70.055450,33.116356 70.645737,24.612713 70.947029,16.139715 
	C71.042923,13.443110 72.078392,11.476401 75.483505,11.448294 
	C93.578682,11.298928 118.812340,28.858105 125.469337,47.224167 
	C121.300720,47.704426 117.365639,48.157784 113.164055,48.326233 
z"/>
<path fill="transparent" opacity="1.000000" stroke="none"
	d="
M271.144348,55.115494 
	C269.793457,61.803181 268.200317,67.939659 264.726685,73.309875 
	C264.226044,73.220268 263.725403,73.130669 263.224762,73.041069 
	C263.224762,71.547127 263.057190,70.030701 263.254028,68.563156 
	C264.067047,62.501801 265.357971,56.480286 265.772430,50.396385 
	C266.206879,44.018944 264.378937,42.534161 257.863831,42.708714 
	C255.537369,42.771042 253.187698,42.899940 250.899445,43.293736 
	C241.439835,44.921673 239.807999,44.208580 233.743805,34.867439 
	C236.163605,33.778801 238.418854,32.536636 240.819595,31.724438 
	C250.058014,28.598959 259.427490,28.716658 268.879547,30.763292 
	C272.022369,31.443802 273.421326,32.919376 273.008667,36.296036 
	C272.261536,42.409206 271.794006,48.556549 271.144348,55.115494 
z"/>
</svg>